<?xml version="1.0" encoding="UTF-8" standalone="no"?>
<svg
   version="1.1"
   viewBox="-5 -10 99.931465 88.700035"
   id="svg5"
   sodipodi:docname="top-hat.svg"
   width="99.931465"
   height="88.700035"
   inkscape:version="1.3.2 (091e20e, 2023-11-25, custom)"
   xmlns:inkscape="http://www.inkscape.org/namespaces/inkscape"
   xmlns:sodipodi="http://sodipodi.sourceforge.net/DTD/sodipodi-0.dtd"
   xmlns="http://www.w3.org/2000/svg"
   xmlns:svg="http://www.w3.org/2000/svg">
  <defs
     id="defs5" />
  <sodipodi:namedview
     id="namedview5"
     pagecolor="#ffffff"
     bordercolor="#000000"
     borderopacity="0.25"
     inkscape:showpageshadow="2"
     inkscape:pageopacity="0.0"
     inkscape:pagecheckerboard="0"
     inkscape:deskcolor="#d1d1d1"
     inkscape:zoom="5.7555556"
     inkscape:cx="49.951737"
     inkscape:cy="65.588803"
     inkscape:window-width="1920"
     inkscape:window-height="991"
     inkscape:window-x="-9"
     inkscape:window-y="-9"
     inkscape:window-maximized="1"
     inkscape:current-layer="svg5" />
  <path
     d="m 44.936092,55.581613 h -0.53125 c -9.8398,0 -19.781,-0.25 -29.551,-0.73047 l 0.0039,1.5 c 3.0781,0.25 6.1602,0.44922 9.2383,0.62891 7,0.57812 14,0.89062 20.852,0.89062 6.8516,0 13.859,-0.30859 20.852,-0.89062 3.0781,-0.17969 6.1602,-0.37891 9.2383,-0.62891 v -1.5117 c -9.9609,0.51172 -20.102,0.74219 -30.102,0.74219 z"
     id="path1" />
  <path
     d="m 14.084092,32.081613 c 0.26172,3.6992 0.45312,7.3984 0.57812,11.102 l 0.27344,-0.0039 c 9.9414,0.5 20.051,0.75 30,0.75 9.949,0 20.09,-0.25 30,-0.75 h 0.23828 c 0.13281,-3.6992 0.32812,-7.3984 0.57812,-11.102 l 0.0039,0.0039 c 0.83594,-11.695 2.332,-23.3319998 4.4805,-34.8589998 0.33203,-1.7852 -0.14453,-3.625 -1.3047,-5.0195 -1.1602,-1.3945 -2.8828,-2.2031 -4.6953,-2.2031 h -58.652 c -1.8125,-0.00391 -3.5391,0.80078 -4.6992,2.1992 -1.1602001,1.3984 -1.6367001,3.2383 -1.3008001,5.0234 2.1562001,11.523 3.6562001,23.1639998 4.5000001,34.8589998 z"
     id="path2" />
  <path
     d="m 94.745092,64.800613 v -0.14844 c -0.96094,-4.6445 -5.3906,-7.7227 -10.078,-7 -26.309,4.1211 -53.094,4.1211 -79.4020001,0 -4.68750002,-0.72266 -9.1172,2.3555 -10.078,7 v 0.14844 c -0.49609,2.3828 0.00391,4.8672 1.3867,6.8711 1.3789,2.0078 3.51949998,3.3594 5.9219,3.75 28.1250001,4.3711 56.7580001,4.3711 84.8830001,0 2.4141,-0.375 4.5703,-1.7227 5.9609,-3.7305 1.3945,-2.0078 1.9023,-4.4961 1.4062,-6.8906 z"
     id="path3" />
  <path
     d="m 14.756092,46.089613 c 0.05078,1.9492 0.07813,3.8906 0.08984,5.8281 10,0.5 20.031,0.75 30.09,0.75 10.059,0 20.09,-0.25 30.09,-0.75 0,-1.9414 0,-3.8789 0.08984,-5.8281 -20.105,1.0117 -40.254,1.0117 -60.359,0 z"
     id="path4" />
</svg>
